<?xml version="1.0" encoding="utf-8"?>
<!-- Generator: Adobe Illustrator 16.0.4, SVG Export Plug-In . SVG Version: 6.00 Build 0)  -->
<!DOCTYPE svg PUBLIC "-//W3C//DTD SVG 1.1//EN" "http://www.w3.org/Graphics/SVG/1.1/DTD/svg11.dtd">
<svg version="1.1" id="Warstwa_1" xmlns="http://www.w3.org/2000/svg" xmlns:xlink="http://www.w3.org/1999/xlink" x="0px" y="0px"
	 width="1772px" height="1772px" viewBox="0 0 1772 1772" enable-background="new 0 0 1772 1772" xml:space="preserve">
<rect x="822.529" y="774.029" display="none" fill="#F0DB4F" width="1.289" height="153.878"/>
<rect x="893.593" y="846.593" display="none" fill="#F0DB4F" width="1.289" height="81.368"/>
<rect x="919.182" y="889.402" display="none" fill="#F0DB4F" width="1.289" height="38.505"/>
<g>
	<g>
		<g>
			<path d="M478.663,1716.061L430.9,1523.488l-48.068,192.572h-17.342l-47.154-208.088h14.908l41.678,194.395l47.764-194.395h16.428
				l48.372,194.395l41.677-194.395h13.995l-46.851,208.088H478.663z"/>
		</g>
		<g>
			<path d="M666.34,1681.682c0,18.864,4.565,24.337,13.387,27.686l-3.345,10.04c-13.083-3.347-20.689-10.648-22.211-27.987
				c-11.56,18.553-28.291,27.987-50.197,27.987c-30.422,0-48.676-19.166-48.676-47.457c0-32.859,25.25-51.11,64.496-51.11h32.552
				v-16.432c0-25.855-10.343-38.025-38.026-38.025c-13.387,0-27.687,3.343-43.201,9.431l-3.957-11.258
				c17.037-6.694,32.249-10.346,48.372-10.346c35.291,0,50.806,17.344,50.806,49.286V1681.682z M652.346,1677.424v-45.332h-30.42
				c-32.553,0-51.719,12.781-51.719,39.555c0,22.811,13.385,35.897,35.593,35.897
				C627.399,1707.544,642.307,1696.59,652.346,1677.424z"/>
			<path d="M807.479,1556.037l-2.737,13.082c-3.956-1.216-8.517-1.824-13.994-1.824c-22.817,0-34.986,16.428-43.81,49.591v99.175
				h-13.995v-158.808h12.169l0.914,36.815c8.518-26.773,22.817-39.858,45.633-39.858
				C798.353,1554.21,803.83,1554.824,807.479,1556.037z"/>
			<path d="M929.151,1571.554l-6.993,9.732c-13.692-10.34-25.253-15.211-41.984-15.211c-21.906,0-37.421,10.953-37.421,28.903
				c0,16.428,10.953,23.729,40.156,31.639c35.296,9.43,50.501,20.384,50.501,47.459c0,27.987-24.033,45.331-55.367,45.331
				c-25.556,0-41.981-8.82-55.672-20.382l7.91-9.13c13.69,10.954,27.076,17.344,47.458,17.344c23.729,0,41.072-11.864,41.072-32.556
				c0-20.685-9.131-27.986-42.896-37.112c-33.771-8.821-47.461-20.686-47.461-42.897c0-23.728,22.209-40.464,51.415-40.464
				C899.341,1554.21,914.249,1559.993,929.151,1571.554z"/>
			<path d="M1079.116,1681.682c0,18.864,4.562,24.337,13.391,27.686l-3.349,10.04c-13.086-3.347-20.691-10.648-22.209-27.987
				c-11.562,18.553-28.292,27.987-50.199,27.987c-30.423,0-48.672-19.166-48.672-47.457c0-32.859,25.247-51.11,64.492-51.11h32.555
				v-16.432c0-25.855-10.346-38.025-38.029-38.025c-13.39,0-27.683,3.343-43.199,9.431l-3.955-11.258
				c17.036-6.694,32.247-10.346,48.37-10.346c35.29,0,50.805,17.344,50.805,49.286V1681.682z M1065.125,1677.424v-45.332h-30.423
				c-32.556,0-51.718,12.781-51.718,39.555c0,22.811,13.385,35.897,35.594,35.897
				C1040.175,1707.544,1055.083,1696.59,1065.125,1677.424z"/>
			<path d="M1251.292,1716.061l-38.03-145.418l-38.029,145.418h-18.553l-40.77-158.808h14.907l35.594,147.246l38.942-147.246h16.425
				l38.941,147.55l35.29-147.55h13.693l-39.549,158.808H1251.292z"/>
		</g>
		<g>
			<path d="M1361.367,1688.073c0,37.113-13.384,51.109-47.458,64.188l-4.867-13.383c27.685-12.169,34.076-23.427,34.076-51.718
				v-179.498h18.249V1688.073z"/>
			<path d="M1534.764,1527.442l-10.954,11.865c-15.207-13.693-29.203-19.471-48.368-19.471c-25.558,0-43.201,13.384-43.201,35.291
				c0,21.293,11.258,31.031,48.674,42.287c37.421,11.561,60.239,24.945,60.239,61.753c0,35.6-27.075,60.239-69.06,60.239
				c-28.596,0-49.592-10.04-66.625-26.163l10.952-11.866c14.604,13.693,31.03,22.514,55.368,22.514
				c29.207,0,50.806-16.122,50.806-44.111c0-25.253-12.473-35.599-49.59-47.159c-41.372-12.775-59.324-27.076-59.324-57.189
				c0-29.514,24.642-51.11,61.152-51.11C1501.908,1504.321,1518.335,1512.839,1534.764,1527.442z"/>
		</g>
	</g>
	<path fill="#F7302F" d="M571.02,566.348c66.458-46.284,109.993-123.208,109.993-210.341c0-141.495-114.708-256.203-256.205-256.203
		c-141.5,0-256.201,114.708-256.201,256.203c0,141.5,114.701,256.209,256.201,256.209c17.075,0,33.745-1.713,49.881-4.898
		c28.366,20.704,94.738,58.922,194.924,55.478C669.613,662.796,577.321,658.931,571.02,566.348"/>
	<path fill="#FFFFFF" d="M338.314,246.982v77.172c0,19.117-10.727,27.107-26.819,27.107v26.419c16.092,0,26.819,7.304,26.819,26.421
		v77.167c0,36.494,16.092,51.793,59.004,51.793v-24.681c-21.457,0-32.185-6.259-32.185-23.638v-83.078
		c0-25.377-9.729-31.631-26.067-37.194c16.338-5.561,26.067-12.515,26.067-37.892v-83.075c0-17.38,10.728-23.64,32.185-23.64
		v-24.677C354.407,195.189,338.314,210.485,338.314,246.982"/>
	<path fill="#FFFFFF" d="M515.325,323.386v-77.171c0-36.495-16.091-51.788-64.367-51.788v24.68c21.455,0,32.183,6.254,32.183,23.632
		v83.083c0,25.371,9.73,32.323,26.071,37.885c-16.34,5.562-26.071,11.823-26.071,37.194v83.076
		c0,17.385-10.728,23.639-32.183,23.639v24.678c48.276,0,64.367-15.29,64.367-51.787v-77.174c0-19.117,5.364-26.421,21.455-26.421
		v-26.411C520.689,350.501,515.325,342.503,515.325,323.386"/>
	<rect x="643.166" y="1197.928" fill="#F0DB4F" width="14.767" height="206.537"/>
	<rect x="617.24" y="1197.912" fill="#F0DB4F" width="14.766" height="206.553"/>
	<rect x="577.471" y="1197.928" fill="#F7302F" width="27.653" height="206.537"/>
	<rect x="1100.893" y="968.012" fill="#F0DB4F" width="13.765" height="436.453"/>
	<rect x="1213.277" y="1197.912" fill="#F0DB4F" width="13.762" height="206.553"/>
	<rect x="1169.827" y="968.012" fill="#F0DB4F" width="25.965" height="436.453"/>
	<rect x="694.778" y="968.012" fill="#F0DB4F" width="25.967" height="436.453"/>
	<rect x="777.726" y="579.383" fill="#F0DB4F" width="27.653" height="825.082"/>
	<rect x="826.436" y="579.383" fill="#F0DB4F" width="27.649" height="825.082"/>
	<rect x="1061.081" y="579.357" fill="#F0DB4F" width="27.647" height="825.092"/>
	<rect x="1130.263" y="968.012" fill="#F7302F" width="27.651" height="436.453"/>
	<rect x="737.771" y="968.012" fill="#F7302F" width="27.653" height="436.453"/>
	<rect x="923.935" y="18.598" fill="#F7302F" width="25.316" height="1385.867"/>
	<rect x="964.363" y="313.483" fill="#F0DB4F" width="27.652" height="1090.981"/>
	<rect x="1007.914" y="579.357" fill="#F0DB4F" width="13.767" height="825.108"/>
	<rect x="1037.059" y="579.354" fill="#F0DB4F" width="13.767" height="825.095"/>
	<rect x="898.718" y="313.483" fill="#F0DB4F" width="13.766" height="1090.981"/>
	<rect x="870.244" y="313.483" fill="#F0DB4F" width="13.765" height="1090.981"/>
	<rect x="1240.862" y="1197.912" fill="#F0DB4F" width="20.737" height="206.553"/>
	<rect x="1273.879" y="1197.912" fill="#F0DB4F" width="13.766" height="206.559"/>
	<rect x="551.624" y="1197.928" fill="#F0DB4F" width="13.765" height="206.537"/>
	<rect x="669.54" y="1197.928" fill="#F0DB4F" width="13.768" height="206.537"/>
	<rect x="1299.521" y="1197.912" fill="#F0DB4F" width="30.218" height="206.553"/>
	<rect x="507.281" y="1197.928" fill="#F0DB4F" width="30.22" height="206.537"/>
	<rect x="1344.553" y="1197.912" fill="#F0DB4F" width="13.824" height="206.553"/>
</g>
</svg>
